<svg id="visual" viewBox="0 0 960 540" width="960" height="540" xmlns="http://www.w3.org/2000/svg" xmlns:xlink="http://www.w3.org/1999/xlink" version="1.1"><path d="M0 93L20 82.2C40 71.3 80 49.7 120 43.3C160 37 200 46 240 50.5C280 55 320 55 360 59.5C400 64 440 73 480 73.8C520 74.7 560 67.3 600 67.3C640 67.3 680 74.7 720 82.8C760 91 800 100 840 105.3C880 110.7 920 112.3 940 113.2L960 114L960 0L940 0C920 0 880 0 840 0C800 0 760 0 720 0C680 0 640 0 600 0C560 0 520 0 480 0C440 0 400 0 360 0C320 0 280 0 240 0C200 0 160 0 120 0C80 0 40 0 20 0L0 0Z" fill="#547f72"></path><path d="M0 158L20 166C40 174 80 190 120 192.7C160 195.3 200 184.7 240 186.5C280 188.3 320 202.7 360 212.5C400 222.3 440 227.7 480 241.2C520 254.7 560 276.3 600 280C640 283.7 680 269.3 720 268.5C760 267.7 800 280.3 840 281.2C880 282 920 271 940 265.5L960 260L960 112L940 111.2C920 110.3 880 108.7 840 103.3C800 98 760 89 720 80.8C680 72.7 640 65.3 600 65.3C560 65.3 520 72.7 480 71.8C440 71 400 62 360 57.5C320 53 280 53 240 48.5C200 44 160 35 120 41.3C80 47.7 40 69.3 20 80.2L0 91Z" fill="#457063"></path><path d="M0 212L20 217.3C40 222.7 80 233.3 120 240.5C160 247.7 200 251.3 240 260.3C280 269.3 320 283.7 360 290C400 296.3 440 294.7 480 299.2C520 303.7 560 314.3 600 320.5C640 326.7 680 328.3 720 329.2C760 330 800 330 840 322.8C880 315.7 920 301.3 940 294.2L960 287L960 258L940 263.5C920 269 880 280 840 279.2C800 278.3 760 265.7 720 266.5C680 267.3 640 281.7 600 278C560 274.3 520 252.7 480 239.2C440 225.7 400 220.3 360 210.5C320 200.7 280 186.3 240 184.5C200 182.7 160 193.3 120 190.7C80 188 40 172 20 164L0 156Z" fill="#376155"></path><path d="M0 336L20 331.5C40 327 80 318 120 319.8C160 321.7 200 334.3 240 352.3C280 370.3 320 393.7 360 400.8C400 408 440 399 480 391.8C520 384.7 560 379.3 600 382C640 384.7 680 395.3 720 393.5C760 391.7 800 377.3 840 375.5C880 373.7 920 384.3 940 389.7L960 395L960 285L940 292.2C920 299.3 880 313.7 840 320.8C800 328 760 328 720 327.2C680 326.3 640 324.7 600 318.5C560 312.3 520 301.7 480 297.2C440 292.7 400 294.3 360 288C320 281.7 280 267.3 240 258.3C200 249.3 160 245.7 120 238.5C80 231.3 40 220.7 20 215.3L0 210Z" fill="#2e554a"></path><path d="M0 368L20 370.7C40 373.3 80 378.7 120 382.3C160 386 200 388 240 403.3C280 418.7 320 447.3 360 460.8C400 474.3 440 472.7 480 466.3C520 460 560 449 600 450.8C640 452.7 680 467.3 720 462.8C760 458.3 800 434.7 840 430.2C880 425.7 920 440.3 940 447.7L960 455L960 393L940 387.7C920 382.3 880 371.7 840 373.5C800 375.3 760 389.7 720 391.5C680 393.3 640 382.7 600 380C560 377.3 520 382.7 480 389.8C440 397 400 406 360 398.8C320 391.7 280 368.3 240 350.3C200 332.3 160 319.7 120 317.8C80 316 40 325 20 329.5L0 334Z" fill="#294b42"></path><path d="M0 541L20 541C40 541 80 541 120 541C160 541 200 541 240 541C280 541 320 541 360 541C400 541 440 541 480 541C520 541 560 541 600 541C640 541 680 541 720 541C760 541 800 541 840 541C880 541 920 541 940 541L960 541L960 453L940 445.7C920 438.3 880 423.7 840 428.2C800 432.7 760 456.3 720 460.8C680 465.3 640 450.7 600 448.8C560 447 520 458 480 464.3C440 470.7 400 472.3 360 458.8C320 445.3 280 416.7 240 401.3C200 386 160 384 120 380.3C80 376.7 40 371.3 20 368.7L0 366Z" fill="#24423a"></path></svg>